<svg xmlns="http://www.w3.org/2000/svg" width="18.59" height="20" viewBox="0 0 18.59 20"><defs><style>.a{fill:#fbfbfb;}</style></defs><g transform="translate(-1880.705 -885)"><path class="a" d="M1890.7,903.182h-8.182V886.818h8.179a.909.909,0,1,0,0-1.818h-9.088a.909.909,0,0,0-.909.909v18.182a.909.909,0,0,0,.909.909h9.091a.909.909,0,1,0,0-1.818Z"/><path class="a" d="M1899.029,894.357l-4.5-4.5a.909.909,0,0,0-1.285,1.287l2.947,2.947H1885.7a.909.909,0,0,0,0,1.818h10.489l-2.947,2.947a.909.909,0,0,0,1.285,1.287l4.5-4.5A.91.91,0,0,0,1899.029,894.357Z"/></g></svg>