<svg xmlns="http://www.w3.org/2000/svg" width="20" height="20" viewBox="0 0 20 20"><defs><style>.a{fill:#fbfbfb;}</style></defs><path class="a" d="M1842.234,897.338l.62,1.5c-.184.5-.538,1.887-.6,2.127a.666.666,0,0,0,.18.621l.972.973a.665.665,0,0,0,.619.179c.185-.043,1.6-.4,2.129-.6l1.5.619c.218.48.951,1.709,1.086,1.922a.664.664,0,0,0,.571.32h1.374a.668.668,0,0,0,.567-.312c.1-.161.855-1.422,1.086-1.922l1.5-.62c.5.184,1.886.538,2.128.6a.666.666,0,0,0,.62-.18l.972-.972a.665.665,0,0,0,.18-.619c-.043-.186-.4-1.6-.6-2.129l.62-1.5c.48-.219,1.71-.951,1.922-1.086a.664.664,0,0,0,.32-.572v-1.375a.661.661,0,0,0-.312-.567c-.161-.1-1.422-.855-1.922-1.086l-.62-1.5c.184-.5.538-1.887.6-2.129a.665.665,0,0,0-.18-.619l-.978-.972a.666.666,0,0,0-.62-.18c-.185.043-1.6.4-2.128.6l-1.5-.619c-.218-.48-.952-1.711-1.086-1.922a.665.665,0,0,0-.566-.318h-1.377a.666.666,0,0,0-.565.313c-.1.16-.856,1.421-1.086,1.921l-1.5.62c-.5-.184-1.887-.538-2.129-.6a.665.665,0,0,0-.619.18l-.972.978a.663.663,0,0,0-.18.619c.042.184.4,1.6.6,2.129l-.619,1.5c-.48.217-1.711.951-1.922,1.086a.662.662,0,0,0-.318.567v1.372a.669.669,0,0,0,.311.567C1840.472,896.354,1841.734,897.107,1842.234,897.338Zm7.774-6.7a4.358,4.358,0,1,1-4.362,4.353A4.357,4.357,0,0,1,1850.008,890.639Z" transform="translate(-1840 -885)"/></svg>