<svg xmlns="http://www.w3.org/2000/svg" xmlns:xlink="http://www.w3.org/1999/xlink" width="17.152" height="22.25" viewBox="0 0 17.152 22.25"><defs><style>.a{fill:#fff;}.b{filter:url(#a);}</style><filter id="a" x="0" y="0" width="17.152" height="22.25" filterUnits="userSpaceOnUse"><feOffset dx="0.25" dy="0.5" input="SourceAlpha"/><feGaussianBlur stdDeviation="0.375" result="b"/><feFlood flood-opacity="0.251"/><feComposite operator="in" in2="b"/><feComposite in="SourceGraphic"/></filter></defs><g class="b" transform="matrix(1, 0, 0, 1, 0, 0)"><path class="a" d="M57.933,1262.548a3.906,3.906,0,0,1,2.139-2.187.161.161,0,0,1,.217.192,3.915,3.915,0,0,0,1.85,4.447,7.485,7.485,0,0,0,5.312-7.163c0-1.153-.793-2.692-1.874-4.471a.1.1,0,0,0-.193.048c-.072,1.106-.7,3.918-1.682,3.173a.276.276,0,0,1-.1-.24l.048-.216c.48-2.4-1.2-4.087-2.4-6.25-.961-1.755-.216-3.967.1-4.76.024-.072-.072-.168-.144-.1-4.038,2.957-4.735,4.976-4.543,6.323.192,1.273,1.2,2.115.962,3.6a3.758,3.758,0,0,1-1.13,2.043.417.417,0,0,1-.24.072c-.89-.216-1.563-2.091-1.828-3.077a.23.23,0,0,0-.432-.048,9.3,9.3,0,0,0-1.442,3.894,7.458,7.458,0,0,0,5.24,7.114A3.937,3.937,0,0,1,57.933,1262.548Z" transform="translate(-51.67 -1244.37)"/></g></svg>