<svg xmlns="http://www.w3.org/2000/svg" width="40" height="48.282" viewBox="0 0 40 48.282"><defs><style>.a{fill:#ff004e;}.b{fill:#fbfbfb;}</style></defs><g transform="translate(-359.858 -1543.934)"><path class="a" d="M399.858,1563.934a20,20,0,1,0-34.139,14.144c.069.069.147.129.216.2l-.007.008,13.932,13.933,13.933-13.933-.01-.01c.071-.068.149-.128.218-.2A19.94,19.94,0,0,0,399.858,1563.934Z"/><path class="b" d="M379.858,1553.934c1.781,4.711,3.1,6.441,5.36,11.044a6.082,6.082,0,1,1-10.719,0C376.757,1560.375,378,1558.645,379.858,1553.934Z"/></g></svg>